<svg width="640" height="640" viewBox="0 0 640 640" fill="none" xmlns="http://www.w3.org/2000/svg">
<path d="M320.467 446.715C376.943 446.715 422.725 400.933 422.725 344.457C422.725 287.982 376.943 242.2 320.467 242.2C263.992 242.2 218.21 287.982 218.21 344.457C218.21 400.933 263.992 446.715 320.467 446.715Z" fill="white"/>
<path d="M224.58 24.9014L166.102 88.8121H64.8031C29.6522 88.8121 0.892334 117.572 0.892334 152.723V536.187C0.892334 571.338 29.6522 600.098 64.8031 600.098H576.089C611.24 600.098 640 571.338 640 536.187V152.723C640 117.572 611.24 88.8121 576.089 88.8121H474.791L416.312 24.9014H224.58ZM320.446 504.232C232.249 504.232 160.669 432.652 160.669 344.455C160.669 256.258 232.249 184.678 320.446 184.678C408.643 184.678 480.223 256.258 480.223 344.455C480.223 432.652 408.643 504.232 320.446 504.232Z" fill="white"/>
</svg>
