<svg width="640" height="640" viewBox="0 0 640 640" fill="none" xmlns="http://www.w3.org/2000/svg">
<path d="M249.09 32C118.169 32 9 122.029 9 236.067C9 294.406 40.9319 345.254 86.2848 382.371C83.3564 402.092 75.3379 420.71 63.0201 436.388C57.9933 442.822 52.74 449.076 47.2703 455.138C44.4388 458.122 41.9207 461.388 39.7555 464.885C38.387 467.118 36.2502 469.615 35.2658 474.657C34.2574 479.674 35.6259 487.933 39.7555 494.151L42.7566 499.409L48.7588 502.41C69.7667 512.901 92.4551 511.053 113.295 505.411C134.111 499.745 154.134 490.046 173.317 479.89C192.476 469.759 210.699 459.148 225.081 451.393C227.097 450.313 228.394 450.049 230.339 449.136C268.201 501.185 337.539 536.165 414.895 536.165C415.64 536.261 416.336 536.165 417.152 536.165C448.364 536.165 549.201 639.254 609.224 598.441C611.625 588.862 556.452 564.83 553.691 493.407C600.677 460.204 631 410.82 631 356.106C631 275.151 566.752 208.266 480.944 184.306C453.79 95.9569 359.387 32 249.09 32ZM249.09 80.0157C358.258 80.0157 441.161 153.24 441.161 236.067C441.161 318.894 358.258 392.118 249.09 392.118C229.594 392.118 218.406 400.088 202.56 408.635C186.714 417.158 168.54 427.745 150.797 437.132C135.431 445.247 120.786 451.489 107.293 455.883C120.426 436.916 134.135 411.972 136.536 377.113L137.304 363.596L126.044 355.362C83.2597 325.376 57.0179 282.234 57.0179 236.067C57.0179 153.24 139.921 80.0157 249.09 80.0157Z" fill="white"/>
</svg>
