<svg width="640" height="640" viewBox="0 0 640 640" fill="none" xmlns="http://www.w3.org/2000/svg">
<path d="M322.716 369.906H281.658C279.268 369.917 276.985 369.018 275.377 367.433C273.769 365.848 272.988 363.726 273.227 361.595L276.852 324.574C277.204 320.639 280.878 317.611 285.283 317.624H326.342C328.732 317.613 331.015 318.512 332.622 320.097C334.23 321.681 335.012 323.803 334.773 325.934L331.147 362.955C330.795 366.89 327.122 369.918 322.716 369.906ZM329.297 297.424H287.475C282.855 297.424 279.11 293.818 279.11 289.37L290.486 164.299C290.997 160.232 294.596 157.182 298.851 157.212H340.673C345.293 157.212 349.037 160.818 349.037 165.265L337.327 290.417C336.796 294.332 333.396 297.299 329.297 297.424ZM575.208 151.574C579.659 156.741 581.833 163.469 581.242 170.246L564.896 356.053C564.371 362.131 561.659 367.817 557.257 372.069L423.581 501.102C418.809 505.691 412.424 508.251 405.783 508.236H263.475L138.201 623L147.902 508.161H84.1956C77.0405 508.166 70.2119 505.186 65.375 499.947C60.5382 494.708 58.1377 487.691 58.7589 480.608L97.6396 39.7706C98.9738 26.815 109.97 16.9714 123.076 17.0001H447.49C454.953 16.9979 462.043 20.2431 466.892 25.8806L575.208 151.574ZM476.134 320.607L486.523 205.92C486.926 199.12 484.558 192.445 479.954 187.4L418.845 117.266C414.002 111.725 406.981 108.542 399.595 108.538H207.101C193.995 108.509 182.999 118.353 181.665 131.308L158.749 389.374C158.221 396.435 160.654 403.399 165.471 408.616C170.288 413.834 177.06 416.841 184.185 416.927H373.471C380.038 416.942 386.358 414.441 391.116 409.944L468.496 336.698C472.915 332.428 475.628 326.712 476.134 320.607Z" fill="white"/>
</svg>
