<svg width="640" height="640" viewBox="0 0 640 640" fill="none" xmlns="http://www.w3.org/2000/svg">
<path d="M322.716 369.906H281.657C279.267 369.917 276.984 369.018 275.377 367.433C273.769 365.848 272.987 363.726 273.226 361.595L276.852 324.574C277.204 320.639 280.878 317.611 285.283 317.624H326.341C328.731 317.613 331.014 318.512 332.622 320.097C334.23 321.681 335.011 323.803 334.772 325.934L331.147 362.955C330.795 366.89 327.121 369.918 322.716 369.906ZM329.297 297.424H287.475C282.855 297.424 279.11 293.818 279.11 289.37L290.486 164.299C290.996 160.232 294.596 157.182 298.85 157.212H340.673C345.292 157.212 349.037 160.818 349.037 165.265L337.327 290.417C336.796 294.332 333.395 297.299 329.297 297.424ZM575.207 151.574C579.658 156.741 581.833 163.469 581.242 170.246L564.895 356.053C564.371 362.131 561.659 367.817 557.257 372.069L423.58 501.102C418.808 505.691 412.423 508.251 405.782 508.236H263.474L138.2 623L147.902 508.161H84.1952C77.0401 508.166 70.2115 505.186 65.3747 499.947C60.5378 494.708 58.1373 487.691 58.7585 480.608L97.6393 39.7706C98.9734 26.815 109.97 16.9714 123.076 17.0001H447.489C454.952 16.9979 462.042 20.2431 466.891 25.8806L575.207 151.574ZM476.134 320.607L486.523 205.92C486.926 199.12 484.558 192.445 479.953 187.4L418.844 117.266C414.002 111.725 406.98 108.542 399.595 108.538H207.101C193.995 108.509 182.998 118.353 181.664 131.308L158.748 389.374C158.221 396.435 160.654 403.399 165.47 408.616C170.287 413.834 177.06 416.841 184.185 416.927H373.471C380.038 416.942 386.358 414.441 391.116 409.944L468.495 336.698C472.914 332.428 475.628 326.712 476.134 320.607Z" fill="white"/>
</svg>
