<svg width="640" height="640" viewBox="0 0 640 640" fill="none" xmlns="http://www.w3.org/2000/svg">
<circle cx="320" cy="320" r="286" stroke="white" stroke-width="40"/>
<rect x="43" y="298" width="555" height="48" fill="white"/>
<rect x="298" y="598" width="555" height="48" transform="rotate(-90 298 598)" fill="white"/>
<path d="M469 320C469 401.792 450.755 474.851 422.262 526.75C393.37 579.375 356.709 606 321 606C285.291 606 248.63 579.375 219.738 526.75C191.245 474.851 173 401.792 173 320C173 238.208 191.245 165.149 219.738 113.251C248.63 60.6246 285.291 34 321 34C356.709 34 393.37 60.6246 422.262 113.251C450.755 165.149 469 238.208 469 320Z" stroke="white" stroke-width="40"/>
<mask id="mask0_1103_184" style="mask-type:alpha" maskUnits="userSpaceOnUse" x="28" y="28" width="584" height="584">
<circle cx="320" cy="320" r="291.543" fill="#F6C2C2"/>
</mask>
<g mask="url(#mask0_1103_184)">
<path d="M321.204 210.85C226.288 210.85 141.331 193.022 80.8516 165.061C18.6851 136.32 -10.5752 100.638 -10.5752 68.2125C-10.5752 35.7865 18.6851 0.105295 80.8516 -28.6361C141.331 -56.5974 226.288 -74.4253 321.204 -74.4253C416.121 -74.4253 501.078 -56.5974 561.557 -28.6361C623.724 0.105322 652.984 35.7866 652.984 68.2125C652.984 100.638 623.724 136.32 561.557 165.061C501.078 193.022 416.121 210.85 321.204 210.85Z" stroke="white" stroke-width="40"/>
<path d="M321.204 714.425C226.288 714.425 141.331 696.597 80.8516 668.636C18.6851 639.894 -10.5752 604.213 -10.5752 571.787C-10.5752 539.361 18.6851 503.68 80.8516 474.939C141.331 446.977 226.288 429.149 321.204 429.149C416.121 429.149 501.078 446.977 561.557 474.939C623.724 503.68 652.984 539.361 652.984 571.787C652.984 604.213 623.724 639.894 561.557 668.636C501.078 696.597 416.121 714.425 321.204 714.425Z" stroke="white" stroke-width="40"/>
</g>
</svg>
