<svg width="640" height="640" viewBox="0 0 640 640" fill="none" xmlns="http://www.w3.org/2000/svg">
<path d="M300.996 6.98755C240.59 16.8082 194.173 56.7892 173.649 116.646C147.528 192.399 186.948 301.354 256.915 348.584C280.472 364.252 293.764 368.46 320.823 368.46C347.881 368.46 360.939 364.252 384.958 348.349C437.904 312.812 474.987 239.858 475.456 170.885C475.69 130.669 466.356 101.677 443.033 68.711C412.017 25.226 351.611 -0.96035 300.996 6.98755Z" fill="white"/>
<path d="M167.67 360.325C106.926 383.435 53.1916 412.618 32.6328 433.161C24.2215 441.566 21.183 447.169 14.1736 468.644C9.49848 482.887 4.36041 501.325 2.72379 509.965C0.154751 523.738 0.389485 526.774 3.89094 536.346C31.6939 608.947 249.671 653.773 440.321 626.226C544.751 611.051 622.553 575.334 637.504 535.877C642.179 523.504 640.777 512.063 629.093 474.475C619.749 444.596 614.376 436.191 595.213 421.479C575.821 406.539 511.341 374.086 470.451 358.911L441.488 348.174L430.742 358.449C409.479 378.757 382.85 393.932 355.745 400.936C334.247 406.539 294.766 404.904 273.972 397.665C253.179 390.426 230.051 376.418 213.463 361.244C205.984 354.24 199.444 348.402 198.975 348.402C198.512 348.65 184.493 353.784 167.67 360.325Z" fill="white"/>
</svg>
