<svg width="640" height="640" viewBox="0 0 640 640" fill="none" xmlns="http://www.w3.org/2000/svg">
<path fill-rule="evenodd" clip-rule="evenodd" d="M31.7321 11C20.2821 11 11 20.282 11 31.732V609.268C11 620.718 20.282 630 31.732 630H609.268C620.718 630 630 620.718 630 609.268V31.7321C630 20.2821 620.718 11 609.268 11H31.7321ZM135.392 185.742C123.942 185.742 114.66 195.024 114.66 206.474V434.526C114.66 445.976 123.942 455.258 135.392 455.258H505.608C517.058 455.258 526.34 445.976 526.34 434.526V206.474C526.34 195.024 517.058 185.742 505.608 185.742H135.392Z" fill="white"/>
</svg>
