<svg width="640" height="640" viewBox="0 0 640 640" fill="none" xmlns="http://www.w3.org/2000/svg">
<path d="M357.892 48.4435C379.594 32.947 409.37 47.1073 411.918 72.7611L412.094 76.3289V562.671C412.094 589.331 383.261 605.326 360.898 592.487L357.892 590.556L152.819 444.111H69.3221C36.4671 444.111 9.55006 418.695 7.17094 386.455L7 381.805V257.193C7 224.347 32.4236 197.437 64.6709 195.058L69.3221 194.888H152.819L357.892 48.4435ZM492.67 231.386L536.738 275.442L580.806 231.387C592.974 219.22 612.705 219.22 624.874 231.387C637.042 243.552 637.042 263.277 624.874 275.442L580.806 319.499L624.874 363.559C637.042 375.724 637.042 395.447 624.874 407.615C612.705 419.781 592.974 419.781 580.806 407.615L536.738 363.559L492.67 407.615C480.498 419.781 460.77 419.781 448.602 407.615C436.43 395.45 436.43 375.724 448.602 363.559L492.67 319.499L448.602 275.442C436.43 263.277 436.43 243.552 448.602 231.386C460.77 219.22 480.498 219.22 492.67 231.386Z" fill="white"/>
</svg>
