<svg width="640" height="640" viewBox="0 0 640 640" fill="none" xmlns="http://www.w3.org/2000/svg">
<path fill-rule="evenodd" clip-rule="evenodd" d="M563.4 61.5917C570.949 58.4114 579.212 57.3146 587.329 58.4153C595.445 59.516 603.119 62.774 609.55 67.8503C615.982 72.9265 620.937 79.6354 623.899 87.2786C626.861 94.9218 627.722 103.22 626.392 111.309L557.107 531.952C550.386 572.527 505.907 595.796 468.728 575.585C437.629 558.676 391.439 532.625 349.892 505.442C329.119 491.836 265.485 448.264 273.306 417.259C280.026 390.749 386.948 291.13 448.047 231.904C472.028 208.635 461.091 195.212 432.772 216.615C362.417 269.757 249.538 350.571 212.207 373.321C179.275 393.379 162.107 396.803 141.578 393.379C104.125 387.141 69.3902 377.479 41.0407 365.707C2.73207 349.807 4.59557 297.093 41.0101 281.743L563.4 61.5917Z" fill="white"/>
</svg>
