<svg width="640" height="640" viewBox="0 0 640 640" fill="none" xmlns="http://www.w3.org/2000/svg">
<path fill-rule="evenodd" clip-rule="evenodd" d="M12 128C16.9856 367.231 136.641 511 346.421 511H358.312V374.132C435.397 381.8 493.687 438.157 517.081 511H626C596.086 402.119 517.463 341.928 468.373 318.925C517.463 290.555 586.495 221.546 602.986 128H504.038C482.561 203.91 418.906 272.919 358.312 279.436V128H259.362V393.301C198 377.966 120.533 303.59 117.082 128H12Z" fill="black"/>
<path d="M12 128C16.9856 367.231 136.641 511 346.421 511H358.312V374.132C435.397 381.8 493.687 438.157 517.081 511H626C596.086 402.119 517.463 341.928 468.373 318.925C517.463 290.555 586.495 221.546 602.986 128H504.038C482.561 203.91 418.906 272.919 358.312 279.436V128H259.362V393.301C198 377.966 120.533 303.59 117.082 128H12Z" fill="white"/>
</svg>
