<svg width="640" height="640" viewBox="0 0 640 640" fill="none" xmlns="http://www.w3.org/2000/svg">
<path d="M359.768 48.4435C381.462 32.947 411.227 47.1074 413.775 72.7609L413.95 76.3286V562.672C413.95 589.333 385.128 605.325 362.773 592.488L359.768 590.557L154.767 444.112H71.3C38.4566 444.112 11.5492 418.696 9.17088 386.456L9 381.806V257.194C9 224.347 34.4146 197.437 66.6505 195.059L71.3 194.888H154.767L359.768 48.4435ZM559.324 156.963C603.884 196.849 632 254.911 632 319.5C632 384.09 603.884 442.15 559.324 482.035C546.506 493.512 526.813 492.422 515.34 479.599C503.865 466.779 504.958 447.084 517.776 435.611C549.689 407.043 569.7 365.628 569.7 319.5C569.7 273.372 549.689 231.956 517.776 203.39C504.958 191.915 503.865 172.22 515.34 159.4C526.813 146.58 546.506 145.489 559.324 156.963ZM497.024 226.625C522.467 249.398 538.55 282.59 538.55 319.5C538.55 356.41 522.467 389.604 497.024 412.377C484.206 423.85 464.513 422.76 453.04 409.937C442.447 398.104 442.564 380.412 452.727 368.736L455.476 365.949C468.273 354.494 476.25 337.949 476.25 319.5C476.25 302.896 469.788 287.834 459.167 276.637L455.476 273.051C442.658 261.577 441.565 241.883 453.04 229.062C464.513 216.242 484.206 215.151 497.024 226.625Z" fill="white"/>
</svg>
