<svg width="830" height="315" viewBox="0 0 830 315" fill="none" xmlns="http://www.w3.org/2000/svg">
<path d="M705.3 140.5C703.193 140.987 701.055 141.321 698.9 141.5C695.5 141.7 692 141.7 688.6 141.6C687.365 141.491 686.13 141.809 685.1 142.5C676.855 148.166 667.78 152.517 658.2 155.4C654.4 156.6 651.1 155.8 648.7 152.7C646.5 149.9 644.5 146.8 642.3 143.7C641.748 143.966 641.214 144.267 640.7 144.6C633.417 149.343 625.507 153.045 617.2 155.6C614.5 156.5 612.5 156 611 154C610.312 153.122 609.922 152.047 609.886 150.933C609.85 149.818 610.17 148.721 610.8 147.8C611.864 146.031 612.736 144.154 613.4 142.2C612.8 142.6 612.3 142.9 611.7 143.3C605.516 147.724 598.878 151.479 591.9 154.5C588.5 156 585.6 155.4 582.9 152.8C578.828 148.912 576.008 143.898 574.8 138.4C573.8 138.8 572.9 139 572 139.4C559.5 144.5 547 149.7 534.5 154.9C531.338 156.218 527.833 156.473 524.514 155.625C521.195 154.777 518.242 152.873 516.1 150.2C514 147.5 511.7 144.9 509.5 142.2C508.8 141.3 508 140.5 507.3 139.6C505.6 137.4 506.3 135.3 509.1 134.7C512.8 133.9 516.6 133.3 520.3 132.4C534.184 128.767 547.114 122.165 558.198 113.049C569.282 103.934 578.256 92.5211 584.5 79.5999C584.9 78.7999 585.2 77.9999 585.6 77.1999C585.7 77.0999 585.6 76.8998 585.5 76.3998C584.611 76.6723 583.742 77.0065 582.9 77.3998C564.411 85.2848 546.673 94.8236 529.9 105.9C515.147 115.518 501.201 126.321 488.2 138.2C482.6 143.3 477.2 148.7 471.7 154C471.05 154.736 470.271 155.346 469.4 155.8C468.811 156.116 468.131 156.219 467.475 156.091C466.819 155.964 466.227 155.613 465.8 155.1C464.9 154.1 464.8 153.1 465.7 151.7C468.3 147.5 470.9 143.2 473.5 139C474.2 137.8 474.9 136.6 476 134.9C474.9 135.4 474.3 135.6 473.7 135.9C460.334 143.592 446.23 149.924 431.6 154.8C428.2 155.9 425.1 155.5 422.7 152.6C420.9 150.5 419.3 148.4 417.4 146.1C416.8 146.3 416.1 146.6 415.4 146.9C410 149.4 404.5 152 399.1 154.6C394.5 156.8 389.8 155.7 386.4 151.8C383.948 149.121 382.05 145.983 380.815 142.568C379.579 139.153 379.03 135.528 379.2 131.9C379.207 131.398 379.174 130.896 379.1 130.4C378.417 130.662 377.749 130.963 377.1 131.3C370 135.1 362.9 138.8 355.8 142.6C354.77 143.245 353.885 144.097 353.2 145.1C351.5 147.7 349.9 150.3 348.3 153C348.056 153.447 347.789 153.881 347.5 154.3C346.3 156 344.7 156.4 343.2 155.4C341.7 154.4 341.5 153 342.6 151.2C345.2 146.9 347.8 142.6 350.5 138.3C354.6 131.6 358.7 124.9 362.8 118.1C363.278 117.291 363.712 116.456 364.1 115.6C363.317 115.857 362.549 116.158 361.8 116.5C350.8 121.6 339.8 126.7 328.8 131.7C327.462 132.356 326.323 133.357 325.5 134.6C321.8 140.7 318 146.8 314.3 152.9C313.935 153.522 313.534 154.123 313.1 154.7C312.657 155.26 312.022 155.635 311.318 155.752C310.613 155.869 309.891 155.719 309.291 155.332C308.691 154.944 308.257 154.347 308.074 153.657C307.891 152.967 307.971 152.234 308.3 151.6C308.63 150.978 308.997 150.377 309.4 149.8C311.7 146 314 142.2 316.3 138.5C316.5 138.1 316.7 137.7 317.1 137C316.349 137.309 315.581 137.577 314.8 137.8C300.5 143.4 286.1 149 271.8 154.5C268.3 155.9 265.3 155.2 262.6 152.4C257.6 147.3 255.8 143.6 254.2 135.1C246.3 135.4 238.4 135.6 230.6 135.9C227.8 139.1 225.2 142.5 222.1 145.5C216.1 151.4 208.7 154.6 200.5 156.1C199.053 156.345 197.569 156.246 196.167 155.81C194.766 155.374 193.487 154.614 192.435 153.591C191.383 152.568 190.587 151.311 190.111 149.923C189.636 148.534 189.495 147.053 189.7 145.6C190.1 142.1 190.6 138.6 191.1 135.1C191.2 134.4 191.3 133.7 191.4 132.8C188.7 132.7 186.2 132.7 183.7 132.6C181.2 132.5 178.6 132.3 176 132.1C175.6 132.8 175.3 133.4 175 134C169.1 145.5 159.9 152.7 147.2 155.2C141.3 156.4 135.4 156.4 130 153C126.9 155.8 123.9 158.5 120.8 161.2C104.351 175.28 85.6139 186.441 65.3999 194.2C46.3999 201.6 25.6999 193.6 15.8999 175.1C8.69992 161.5 9.32993 143.67 15.5299 129.57C21.9487 115.078 29.9292 101.33 39.3299 88.5699C48.0299 76.7699 57.4299 67.6998 68.3299 57.8998C82.994 44.8524 99.368 33.8646 117 25.2398C132.7 17.5398 146 12.7399 164 9.97987C170.83 9.55987 179 9.89985 184.17 18.7398C187.5 25.1198 187.9 32.3398 184 38.2398C172.92 56.4798 156.3 64.4999 135.4 66.6999C133.739 66.8644 132.069 66.9311 130.4 66.8998C128.6 66.8998 127.3 65.7998 127.3 64.2998C127.351 63.5394 127.689 62.8267 128.246 62.3067C128.803 61.7866 129.538 61.4982 130.3 61.4999C134.4 60.9999 138.6 60.7998 142.6 59.8998C155.75 56.7398 168.75 52.4299 179.5 35.5699C184.67 27.6799 178.83 16.1598 170.13 15.3598C166.069 15.0364 161.982 15.3331 158.01 16.2398C134.51 21.9098 114.24 31.1099 92.3399 46.9099C69.4999 63.4899 53.4999 77.9999 37.7499 102C30.4999 113.25 23.8199 126.78 21.6699 133.25C20.0618 138.582 18.9537 144.052 18.3599 149.59C17.7656 154.916 18.3249 160.309 19.9999 165.4C23.9999 177.6 31.9999 185.9 44.6999 189.1C51.4504 190.812 58.5745 190.286 64.9999 187.6C86.9223 178.653 107.123 165.964 124.7 150.1C125 149.9 125.2 149.6 125.6 149.3C125.1 148.6 124.7 147.9 124.3 147.3C119.1 139.3 117.8 130.9 121.7 122.1C123.988 117.193 127.295 112.829 131.4 109.3C141.4 100.4 153.2 96.7999 166.5 98.1999C171.6 98.6999 176.4 100.3 179.9 104.4C180.915 105.631 181.787 106.973 182.5 108.4C182.666 108.708 182.769 109.046 182.803 109.394C182.837 109.743 182.802 110.094 182.7 110.429C182.598 110.764 182.43 111.075 182.207 111.345C181.984 111.614 181.71 111.837 181.4 112C180.83 112.345 180.166 112.502 179.501 112.448C178.837 112.394 178.207 112.132 177.7 111.7C177.278 111.243 176.909 110.74 176.6 110.2C174.763 107.324 171.904 105.252 168.6 104.4C164.124 103.201 159.424 103.098 154.9 104.1C149.435 105.052 144.239 107.17 139.666 110.311C135.093 113.451 131.25 117.54 128.4 122.3C123.9 129.3 125 138.7 129.7 145C131.167 147.179 133.227 148.892 135.637 149.938C138.047 150.983 140.706 151.317 143.3 150.9C154.8 149.5 163.4 143.7 169.4 133.8C169.857 132.961 170.258 132.092 170.6 131.2C168.2 130.6 166 130.1 163.8 129.5C163.005 129.373 162.231 129.138 161.5 128.8C160.953 128.6 160.504 128.199 160.243 127.678C159.983 127.158 159.932 126.557 160.1 126C160.225 125.427 160.563 124.922 161.046 124.588C161.528 124.254 162.119 124.115 162.7 124.2C163.408 124.285 164.11 124.418 164.8 124.6C172.766 126.659 180.973 127.634 189.2 127.5C190.3 127.5 191.5 127.4 192.7 127.3C193.5 125 194.1 122.7 195 120.5C208.4 83.9999 234 60.5998 271.5 50.3998C277.7 48.6998 282.1 53.2999 280.6 59.5999C277.053 74.4877 269.872 88.2648 259.7 99.6999C244 117.4 224.3 128.2 200.8 131.6C199.721 131.73 198.652 131.93 197.6 132.2C196.9 136 196.3 139.9 195.6 143.8C195.484 144.494 195.417 145.196 195.4 145.9C195.258 146.614 195.3 147.353 195.521 148.047C195.743 148.74 196.137 149.366 196.667 149.866C197.196 150.366 197.844 150.723 198.55 150.904C199.255 151.085 199.995 151.083 200.7 150.9C204.636 150.172 208.401 148.714 211.8 146.6C217.839 143.179 222.821 138.162 226.2 132.1C227.2 130.2 228.5 129.8 230.4 129.8C237.3 129.8 244.2 129.6 251.1 129.4C252.173 129.328 253.242 129.195 254.3 129C255.2 126.255 256.303 123.581 257.6 121C266 105.6 282.7 96.0998 302.1 98.2998C305.1 98.5998 308.1 99.8999 310.9 101C312.354 101.596 313.526 102.725 314.177 104.156C314.827 105.587 314.907 107.212 314.4 108.7C313.854 110.672 312.61 112.378 310.9 113.5C296.6 123.057 280.564 129.716 263.7 133.1C262.9 133.3 262 133.5 261 133.7C261.115 137.996 262.624 142.137 265.3 145.5C265.575 145.855 265.875 146.189 266.2 146.5C268.8 149.5 269.6 149.8 273.3 148.3C288.8 142.1 304.333 135.9 319.9 129.7C321.639 129.057 323.092 127.816 324 126.2C329.9 116.3 336 106.6 342 96.7998C342.297 96.2446 342.631 95.7101 343 95.1999C343.443 94.64 344.075 94.2606 344.778 94.1325C345.48 94.0044 346.205 94.1364 346.818 94.5038C347.43 94.8712 347.888 95.4489 348.105 96.129C348.323 96.8092 348.285 97.5453 348 98.1999C347 100.1 345.7 102 344.6 103.9C340.9 109.9 337.2 116 333.5 122C333.2 122.5 333 123 332.5 124C333.8 123.4 334.7 123.1 335.5 122.7C347.2 117.1 358.9 111.4 370.6 105.7C371.1 105.5 371.6 105.2 372 105C372.249 104.816 372.533 104.683 372.834 104.609C373.134 104.534 373.447 104.52 373.753 104.566C374.06 104.613 374.354 104.719 374.62 104.879C374.885 105.039 375.116 105.25 375.3 105.5C375.744 105.936 376.026 106.511 376.099 107.129C376.172 107.748 376.031 108.372 375.7 108.9C375.5 109.3 375.2 109.6 375 110C370.3 117.5 365.7 125 360.8 133C361.8 132.7 362.3 132.6 362.8 132.4C369.8 128.7 376.7 125 383.7 121.4C385.6 120.4 386.6 120.6 387.6 122C387.887 122.499 388.046 123.062 388.063 123.637C388.081 124.213 387.956 124.784 387.7 125.3C386.504 128.416 386.062 131.77 386.41 135.09C386.757 138.409 387.885 141.599 389.7 144.4C390.464 145.692 391.407 146.87 392.5 147.9C393.9 149.3 395.6 150.1 397.6 149.2C403.8 146.4 409.9 143.5 415.9 140.8C415.7 137.5 415.4 134.5 415.4 131.6C415.334 127.601 416.446 123.67 418.6 120.3C426.6 107.3 438.3 99.6998 453.4 97.7998C455.79 97.5167 458.203 97.4832 460.6 97.6999C461.285 97.8057 461.986 97.6877 462.598 97.3634C463.211 97.0391 463.702 96.5258 464 95.8998C466.6 91.3998 469.4 86.9999 472.2 82.4999C472.55 81.7886 473.024 81.1452 473.6 80.5999C474.085 80.0552 474.762 79.7197 475.49 79.6638C476.217 79.6078 476.937 79.8358 477.5 80.2998C478.085 80.7164 478.505 81.3247 478.688 82.0189C478.87 82.7131 478.804 83.4495 478.5 84.0999C478.271 84.5873 478.004 85.0555 477.7 85.4999C469.6 98.4999 461.6 111.5 453.5 124.5C453.203 125.055 452.869 125.59 452.5 126.1C452.072 126.674 451.442 127.066 450.737 127.196C450.033 127.326 449.305 127.184 448.7 126.8C448.075 126.442 447.6 125.871 447.362 125.192C447.123 124.512 447.137 123.77 447.4 123.1C447.64 122.535 447.941 121.998 448.3 121.5C451.4 116.5 454.4 111.5 457.5 106.6C458.049 105.762 458.55 104.894 459 104C458.176 103.845 457.338 103.778 456.5 103.8C441.6 104.9 430.5 111.8 423.6 125.1C419.8 132.3 422.2 143.2 428.4 148.5C429.9 149.8 431.4 149.7 433.1 149C439 146.6 444.9 144.3 450.7 141.7C460.88 137.168 470.825 132.129 480.5 126.6C481.88 125.821 483.021 124.68 483.8 123.3C488.6 115.4 493.4 107.6 498.2 99.6999C498.7 98.8999 499.1 98.1999 499.6 97.4999C500.043 96.8868 500.701 96.4637 501.443 96.3154C502.185 96.167 502.955 96.3044 503.6 96.6999C504.217 97.0634 504.668 97.6543 504.855 98.3459C505.041 99.0375 504.95 99.7748 504.6 100.4C504.3 101 504 101.5 503.7 102C497.8 111.7 491.9 121.3 486 131C485.256 132.108 484.683 133.321 484.3 134.6C484.6 134.4 485 134.2 485.3 134C495.919 124.228 507.177 115.175 519 106.9C540.688 91.5849 564.078 78.8333 588.7 68.8998C589.3 68.6998 589.8 68.3999 590.4 68.1999C591.016 67.9309 591.698 67.8538 592.358 67.9787C593.018 68.1036 593.625 68.4246 594.1 68.8998C594.579 69.3735 594.895 69.9871 595.003 70.652C595.111 71.317 595.005 71.9991 594.7 72.5999C592.8 76.9999 591.2 81.4999 588.9 85.6999C574.5 112.3 552.7 129.7 523.5 137.5C521.1 138.1 518.7 138.6 516.3 139.2C516.2 139.2 516.2 139.3 516 139.6L518.4 142.6C519.9 144.4 521.5 146.2 523.1 148C525.7 151 528.6 151.8 532.3 150.3C537.4 148.2 542.4 146.1 547.5 144C556.1 140.5 564.7 136.9 573.2 133.4C573.8 133.1 574.5 132.8 575 132.5C576.5 116 593 101.7 609.1 98.9999C614.483 97.9499 620.017 97.9499 625.4 98.9999C628.7 99.7999 631.9 100.8 634.5 103.2C635.116 103.715 635.684 104.284 636.2 104.9C637.6 106.6 637.5 108.1 636.1 109.3C635.798 109.601 635.435 109.835 635.035 109.985C634.635 110.135 634.208 110.197 633.782 110.169C633.356 110.141 632.941 110.022 632.565 109.82C632.188 109.618 631.86 109.339 631.6 109C629.213 106.467 626.043 104.811 622.6 104.3C618.656 103.615 614.618 103.683 610.7 104.5C598.5 107 589.3 113.6 583.5 124.6C579.7 131.7 581.3 142.4 588.6 148.8C590 150 591.5 149.7 593 149C599.58 145.956 605.787 142.164 611.5 137.7C617.856 132.877 623.539 127.227 628.4 120.9C628.59 120.604 628.836 120.348 629.125 120.147C629.414 119.947 629.74 119.805 630.084 119.731C630.428 119.656 630.783 119.651 631.129 119.714C631.475 119.777 631.805 119.909 632.1 120.1C632.716 120.465 633.171 121.048 633.375 121.734C633.579 122.42 633.517 123.158 633.2 123.8C632.87 124.422 632.503 125.023 632.1 125.6C627.4 133 622.6 140.3 617.9 147.7C617.4 148.6 616.8 149.4 616.3 150.3C616.4 150.5 616.5 150.6 616.6 150.8C617.6 150.5 618.6 150.2 619.5 149.9C626.303 147.315 632.834 144.066 639 140.2C639.898 139.608 640.834 139.073 641.8 138.6C642.367 138.294 642.99 138.109 643.632 138.055C644.273 138.001 644.919 138.08 645.528 138.286C646.138 138.492 646.699 138.822 647.176 139.255C647.653 139.687 648.035 140.213 648.3 140.8C648.6 141.3 648.7 142 649 142.5C649.527 143.835 650.197 145.11 651 146.3C654.5 151.2 656.4 151.3 660.8 149.7C667.15 147.434 673.249 144.518 679 141C679.4 140.7 679.8 140.4 680.5 139.9C679.655 139.484 678.787 139.117 677.9 138.8C672.542 136.646 667.727 133.333 663.8 129.1C660.399 125.093 658.284 120.155 657.731 114.928C657.178 109.701 658.212 104.43 660.7 99.7998C665.041 91.865 671.713 85.4532 679.813 81.4297C687.914 77.4061 697.054 75.9647 706 77.2998C710.5 77.9998 714.7 79.4998 718.1 82.8998C720.132 85.1118 721.501 87.8512 722.049 90.8045C722.597 93.7579 722.303 96.8059 721.2 99.5999C715.385 112.952 706.755 124.891 695.9 134.6C695.5 135 694.9 135.3 694.6 135.9C697.2 136.8 699.6 136.3 702 136C703.5 135.8 704.9 135.4 706.4 135.1C709.7 134.5 712 136.2 712.1 139.6C712.333 150.588 716.162 161.196 723 169.8C729.684 178.388 738.932 184.623 749.4 187.6C754.2 189 758.9 188.4 763.6 187.7C775.737 185.857 787.107 180.623 796.4 172.6C803.546 166.588 809.281 159.077 813.2 150.6C813.6 149.8 813.9 149 814.3 148.2C814.428 147.87 814.623 147.571 814.871 147.32C815.12 147.069 815.418 146.871 815.746 146.74C816.074 146.609 816.426 146.546 816.779 146.557C817.132 146.567 817.48 146.65 817.8 146.8C818.137 146.932 818.441 147.136 818.69 147.399C818.94 147.661 819.128 147.975 819.243 148.319C819.357 148.662 819.395 149.027 819.353 149.386C819.311 149.746 819.19 150.092 819 150.4C817.422 154.139 815.619 157.779 813.6 161.3C802.9 178.8 787.3 189.3 767.1 193C751.3 195.9 737.7 191.2 725.7 181.1C713.7 171 707.4 157.9 706.2 142.4C706.216 142.03 706.183 141.66 706.1 141.3C705.6 140.9 705.4 140.8 705.3 140.5ZM199 126.9C199.368 126.914 199.735 126.947 200.1 127C207.21 126.077 214.169 124.228 220.8 121.5C245.8 111.2 263.1 93.4999 272.7 68.1999C273.9 64.9999 274.8 61.5998 275.7 58.2998C276.3 56.0998 275.2 55.0998 273 55.3998C272.659 55.418 272.322 55.4854 272 55.5999C262.403 58.1748 253.237 62.1509 244.8 67.3998C228.157 77.5562 214.656 92.1297 205.8 109.5C202.986 115.071 200.709 120.897 199 126.9ZM663.4 110.3C663.1 116.8 665.9 123.4 670 126.9C674.158 130.377 678.945 133.025 684.1 134.7C684.872 135.008 685.717 135.088 686.533 134.928C687.349 134.768 688.101 134.377 688.7 133.8C695.825 127.965 702.028 121.087 707.1 113.4C710.085 108.697 712.725 103.784 715 98.6999C717.1 94.1999 716 90.0999 712.4 86.5999C709.802 84.1294 706.383 82.705 702.8 82.5999C688.4 81.6999 676.7 86.9999 668.1 98.5999C665.2 102.3 663.2 106.4 663.4 110.3ZM261.1 128.5C266.5 127 271.4 125.9 276.2 124.4C286.677 121.152 296.643 116.438 305.8 110.4C306.9 109.7 307.9 109 307.8 107.5C307.7 106 306.3 105.7 305.2 105.2C302.145 104.015 298.871 103.503 295.6 103.7C283 104.4 272.7 109.7 265.1 120C263.142 122.495 261.774 125.401 261.1 128.5Z" fill="white" stroke="white" stroke-width="2"/>
<path d="M657.1 203.6C656.175 205.65 655.374 207.754 654.7 209.9C654.572 210.83 654.747 211.777 655.2 212.6C659.7 224 664.3 235.4 668.9 246.9C676.2 265 683.4 283.2 690.7 301.3C691.1 302.3 691.4 303.2 691.9 304.6C690.5 304.7 689.5 304.8 688.5 304.9C687.932 304.993 687.351 304.87 686.869 304.555C686.388 304.24 686.042 303.757 685.9 303.2C684.1 298.5 682.2 293.8 680.3 289.1C679.7 287.6 679.1 286.2 678.4 284.5H625C624.7 285.1 624.4 285.8 624.1 286.5C622 291.7 620 296.8 617.9 302C616.7 305 616.7 305 613.4 304.8C612.787 304.731 612.183 304.597 611.6 304.4C612 303.3 612.3 302.3 612.7 301.4L641.8 228.5C647.5 214.1 653.3 199.8 659 185.4C660.6 181.3 660.6 181.3 665.5 182.1C681.7 222.7 697.966 263.366 714.3 304.1C712.7 305.3 711.1 305 709.6 304.6C709 304.5 708.5 303.3 708.2 302.5C704.2 292.5 700.2 282.5 696.2 272.4C685.5 245.6 674.8 218.9 664.1 192.1C663.8 191.4 663.5 190.6 663 189.6C661.822 191.64 660.915 193.825 660.3 196.1C660.26 196.986 660.506 197.862 661 198.6C668.2 216.8 675.5 234.9 682.7 253.1C689.1 269.2 695.6 285.3 702 301.4C702.4 302.3 702.6 303.2 703 304.1C702.326 304.493 701.578 304.741 700.803 304.828C700.028 304.914 699.243 304.836 698.5 304.6C697.9 304.4 697.3 303.4 697 302.6C694.2 295.8 691.5 289 688.8 282.2C678.7 256.8 668.5 231.4 658.4 206.1C657.924 205.289 657.49 204.455 657.1 203.6ZM651.9 218.1C651.695 218.084 651.489 218.118 651.3 218.2C646 231.5 640.6 244.7 635.4 258.1H667.9C662.4 244.6 657.1 231.4 651.9 218.1ZM627.1 278.9H676.1C675.3 277 674.7 275.4 674.1 273.9H629.1C628.4 275.6 627.8 277.1 627.1 278.9ZM631.1 268.5H671.7C671.593 268.026 671.46 267.558 671.3 267.1C670.9 266 670.4 264.8 669.9 263.6H633.1C632.5 265.1 631.9 266.7 631.1 268.5Z" fill="white" stroke="white" stroke-width="2"/>
<path d="M219.2 243.4C222.485 248.565 224.538 254.415 225.2 260.5C226.5 273.8 222.3 285 212.6 294.2C206.37 300.242 198.246 303.95 189.6 304.7C185.3 305.1 181 304.8 176.6 304.8C176.281 304.716 175.977 304.581 175.7 304.4V182.4C176 182.2 176.1 182 176.3 182C185 181.6 193.6 181.5 201.8 185.2C222.7 194.9 231.9 220 220.5 241C220.1 241.7 219.7 242.5 219.2 243.4ZM180.8 299.6C181.2 299.9 181.3 300 181.5 300C182.9 300 184.3 300.1 185.7 300.1C199.6 299.4 210.1 293.2 216.4 280.8C222.5 268.8 221.6 256.9 214.4 245.5C213.5 244 213 243 214.3 241.3C217.644 236.581 219.679 231.061 220.2 225.3C221.074 217.071 219.015 208.798 214.387 201.938C209.759 195.078 202.858 190.071 194.9 187.8C190.349 186.531 185.594 186.157 180.9 186.7C180.9 187.6 180.8 188.4 180.8 189.2C180.8 190 180.9 190.9 181 192C194.9 191.2 205.8 196 212 208.6C218.2 221.2 215.6 233 206.1 243.3C206.463 243.675 206.797 244.076 207.1 244.5C211.939 249.521 214.784 256.134 215.1 263.1C216.2 281.4 200.8 295 185.3 294.5H181C180.898 295.196 180.831 295.897 180.8 296.6C180.75 297.6 180.75 298.601 180.8 299.6ZM180.9 202.1C181.564 202.179 182.232 202.212 182.9 202.2C184.767 202.134 186.637 202.167 188.5 202.3C191.326 202.764 194.017 203.838 196.386 205.446C198.755 207.054 200.746 209.159 202.221 211.613C203.695 214.068 204.618 216.814 204.926 219.661C205.233 222.508 204.917 225.388 204 228.1C201.1 236.8 192.2 242 185.4 241.3C183.935 241.2 182.465 241.2 181 241.3V245.1C181.764 245.179 182.532 245.213 183.3 245.2C185.8 245.4 188.3 245.2 190.7 245.8C194.964 246.956 198.71 249.523 201.326 253.083C203.941 256.644 205.272 260.986 205.1 265.4C204.9 277.3 193.9 285.1 185.8 284.3C184.3 284.2 182.7 284.3 181 284.3V287.8C181.033 288.403 181.1 289.004 181.2 289.6H186C195.8 289.4 203.1 284.7 207.5 276.1C210.203 270.901 210.973 264.912 209.673 259.198C208.373 253.484 205.087 248.418 200.4 244.9C199.7 244.4 199.1 243.8 198.2 243.1C203.9 239.1 207.8 234.3 209.5 227.8C211.18 221.559 210.317 214.906 207.1 209.3C204.596 204.813 200.756 201.218 196.115 199.014C191.473 196.809 186.26 196.106 181.2 197C180.942 198.687 180.841 200.395 180.9 202.1ZM180.9 207V236.3C188.9 237.3 194.5 235.1 197.8 229.4C199.321 227.033 200.105 224.268 200.051 221.455C199.998 218.642 199.11 215.908 197.5 213.6C193.7 207.7 187.8 206.4 180.9 207ZM180.9 250.1V279.5C187.9 280.3 193.8 278.9 197.7 272.8C199.306 270.432 200.147 267.629 200.111 264.769C200.076 261.908 199.164 259.127 197.5 256.8C193.7 250.7 187.8 249.4 180.9 250.1Z" fill="white" stroke="white" stroke-width="2"/>
<path d="M461.8 304.2C461.146 304.6 460.409 304.843 459.646 304.913C458.883 304.982 458.115 304.875 457.4 304.6C456.8 304.5 456.2 303.4 455.9 302.6C453.2 296 450.6 289.5 448 282.9C439.7 262 431.3 241.2 423 220.3C422.7 219.5 422.3 218.7 421.8 217.6C421.3 218.7 420.9 219.5 420.6 220.3C409.7 247.5 398.9 274.7 388 301.9C386.7 305.1 385.4 305.6 381.6 304.1C397.866 263.3 414.133 222.567 430.4 181.9C435.3 181.3 435.3 181.3 436.9 185.4C452.4 224.2 467.933 263.034 483.5 301.9C483.792 302.648 484.026 303.417 484.2 304.2C482.7 305.2 481.1 304.9 479.7 304.6C479.1 304.5 478.6 303.4 478.2 302.6C475.7 296.5 473.3 290.5 470.9 284.4L434 192C433.7 191.3 433.3 190.6 432.8 189.5C431.9 191.8 431 193.8 430.4 195.8C430.294 196.655 430.432 197.522 430.8 198.3C435.7 210.7 440.7 223.1 445.6 235.5L472 301.5C472.4 302.4 472.7 303.3 473.1 304.2C472.407 304.593 471.642 304.839 470.851 304.925C470.06 305.011 469.26 304.935 468.5 304.7C467.9 304.6 467.3 303.5 467 302.7C464.9 297.5 462.8 292.2 460.7 286.9C450 260.2 439.4 233.5 428.7 206.8C428.3 205.9 427.9 205 427.4 203.9C426.136 205.873 425.191 208.033 424.6 210.3C424.4 210.9 424.9 211.8 425.2 212.6L447.1 267.5C451.7 279.1 456.4 290.7 461 302.2C461.351 302.83 461.62 303.502 461.8 304.2Z" fill="white" stroke="white" stroke-width="2"/>
<path d="M301.9 181.8C335 181.6 363.8 209.4 363.2 244.5C362.6 277.9 334.8 305 301.3 304.8C269.1 304.7 240.1 278.7 240 243.3C239.993 235.189 241.593 227.156 244.706 219.665C247.819 212.174 252.385 205.374 258.139 199.656C263.894 193.939 270.724 189.418 278.234 186.353C285.745 183.288 293.788 181.741 301.9 181.8ZM301.7 186.9C290.545 186.9 279.641 190.208 270.366 196.406C261.091 202.603 253.862 211.411 249.593 221.717C245.324 232.023 244.208 243.363 246.384 254.304C248.56 265.244 253.932 275.294 261.819 283.181C269.707 291.069 279.756 296.441 290.697 298.617C301.637 300.793 312.978 299.676 323.283 295.407C333.589 291.139 342.398 283.91 348.595 274.635C354.792 265.36 358.1 254.455 358.1 243.3C358.12 235.888 356.674 228.545 353.847 221.694C351.02 214.842 346.866 208.617 341.625 203.376C336.384 198.134 330.158 193.981 323.307 191.153C316.455 188.326 309.112 186.881 301.7 186.9Z" fill="white" stroke="white" stroke-width="2"/>
<path d="M548.4 230.2V182.4C550.1 181.5 551.7 181.8 553.4 182.1V304.6H548.5V256.7H525C524.7 259.8 524.9 263 524.9 266.1V304.3C522.8 305.1 522.4 305.1 520 304.5V182.1H524.9V230.3C532.8 230.2 540.5 230.2 548.4 230.2ZM525.2 235.6V240.6C530.3 241.1 546.4 240.9 548.3 240.4V235.6H525.2ZM525.1 246.2V251.2C532.9 251.4 540.5 251.3 548.2 250.8V246.2H525.1Z" fill="white" stroke="white" stroke-width="2"/>
<path d="M359 304.5C375.5 263.3 391.7 222.7 407.9 182H413.2C412.8 183.1 412.6 184 412.3 184.7C396.6 224 380.9 263.333 365.2 302.7C364.6 304.2 363.9 304.9 362.3 304.7C361.196 304.719 360.093 304.652 359 304.5Z" fill="white" stroke="white" stroke-width="2"/>
<path d="M649 182H654.3C653.9 183.1 653.7 183.9 653.4 184.7C637.8 223.7 622.233 262.667 606.7 301.6C605.3 305.1 604.7 305.4 600.7 304.4L600.5 304.2C600.5 304.1 600.4 304 600.5 303.9C600.586 303.389 600.72 302.886 600.9 302.4C616.9 262.3 632.933 222.167 649 182Z" fill="white" stroke="white" stroke-width="2"/>
<path d="M637.8 182H643.1C642.801 182.991 642.433 183.96 642 184.9L610.2 264.4C605.3 276.8 600.3 289.2 595.3 301.6C593.9 305.2 593.4 305.4 589 304.3C589.273 303.248 589.607 302.213 590 301.2C595.8 286.7 601.6 272.167 607.4 257.6C617.1 233.2 626.9 208.9 636.6 184.5C637.06 183.697 637.461 182.861 637.8 182Z" fill="white" stroke="white" stroke-width="2"/>
<path d="M370.5 304C372.1 300 373.6 296.1 375.2 292.2C389.5 256.5 403.767 220.8 418 185.1C419.5 181.4 419.9 181.2 424.5 182.2C424.2 183.1 424 184 423.6 184.9C415.1 206.2 406.6 227.6 398 248.9C391 266.5 384 284 377 301.6C375.6 305.1 375 305.4 371.3 304.6C371 304.6 370.9 304.4 370.5 304Z" fill="white" stroke="white" stroke-width="2"/>
<path d="M170.2 182.1V304.6H165.3V182.3C166.8 181.5 168.4 181.8 170.2 182.1Z" fill="white" stroke="white" stroke-width="2"/>
<path d="M514.3 304.6H509.4V182H514.3V304.6Z" fill="white" stroke="white" stroke-width="2"/>
<path d="M574.2 304.6H569.5V182.3C570.937 181.739 572.519 181.669 574 182.1C574.6 184 574.7 301.3 574.2 304.6Z" fill="white" stroke="white" stroke-width="2"/>
<path d="M563.7 304.6H559.4C558.8 302.6 558.7 185.7 559.2 182H563.5C563.554 182.054 563.589 182.124 563.6 182.2C563.7 182.3 563.7 182.3 563.7 182.4C563.822 182.925 563.889 183.461 563.9 184V303.7C564 303.9 563.8 304.2 563.7 304.6Z" fill="white" stroke="white" stroke-width="2"/>
<path d="M499 182H503.7V304.2C501.9 305 501.5 305 499 304.4V182Z" fill="white" stroke="white" stroke-width="2"/>
<path d="M154.9 182H159.3C159.8 184 160 300.8 159.5 304.3C157.5 305 157.2 305 154.8 304.4C154.9 263.7 154.933 222.9 154.9 182Z" fill="white" stroke="white" stroke-width="2"/>
<path d="M364.1 92.6C363.367 92.5911 362.656 92.3417 362.078 91.8901C361.5 91.4385 361.086 90.8096 360.9 90.1C360.776 89.4527 360.877 88.7825 361.186 88.2004C361.496 87.6184 361.994 87.1596 362.6 86.9C363.186 86.6871 363.788 86.52 364.4 86.4L428.5 72.9C430.8 72.4 432.4 73.3 432.8 75.2C433.1 76.9 432.1 78.3 430.1 78.8C426 79.7 422 80.5 417.9 81.4L365.5 92.5C365.032 92.4296 364.554 92.4638 364.1 92.6Z" fill="white" stroke="white" stroke-width="2"/>
<path d="M250.5 243.2C250.2 216.7 272 192.3 301.2 192.1C307.917 192.061 314.576 193.345 320.797 195.879C327.018 198.413 332.679 202.148 337.457 206.87C342.234 211.592 346.035 217.208 348.642 223.399C351.249 229.59 352.611 236.233 352.65 242.95C352.69 249.668 351.406 256.327 348.871 262.548C346.337 268.768 342.603 274.429 337.881 279.207C333.159 283.984 327.542 287.785 321.352 290.392C315.161 292.999 308.517 294.361 301.8 294.401C273.1 294.601 250.1 270.8 250.5 243.2ZM301.6 289.3C313.8 289.3 325.5 284.454 334.127 275.827C342.754 267.201 347.6 255.5 347.6 243.3C347.6 231.101 342.754 219.4 334.127 210.774C325.5 202.147 313.8 197.3 301.6 197.3C276.4 197.2 255.8 218 255.6 242.9C255.547 248.975 256.698 255 258.986 260.627C261.274 266.254 264.654 271.372 268.931 275.686C273.208 280 278.297 283.424 283.904 285.761C289.511 288.098 295.526 289.301 301.6 289.3Z" fill="white" stroke="white" stroke-width="2"/>
<path d="M301.6 284.1C279.3 284.1 260.7 265.8 260.8 243.4C260.8 232.593 265.094 222.228 272.736 214.586C280.378 206.944 290.743 202.65 301.55 202.65C312.358 202.65 322.723 206.944 330.365 214.586C338.007 222.228 342.3 232.593 342.3 243.4C342.4 265.6 324 284 301.6 284.1ZM302 207.7C283 207.6 266.6 222 266.1 242.4C265.6 262 280.5 278.7 301.6 278.9C311.042 278.953 320.118 275.254 326.832 268.615C333.546 261.976 337.347 252.942 337.4 243.5C337.453 234.059 333.753 224.983 327.115 218.269C320.476 211.555 311.442 207.753 302 207.7Z" fill="white" stroke="white" stroke-width="2"/>
</svg>
